<?xml version="1.0" standalone="no"?>
<!DOCTYPE svg PUBLIC "-//W3C//DTD SVG 1.1//EN" "http://www.w3.org/Graphics/SVG/1.1/DTD/svg11.dtd" >
<svg>
<metadata>
Created by FontForge 20110222 at Sun Apr  1 17:57:56 2012
 By www-data
2007 (c) Stefanie Koerner (pheist). All rights reserved.
</metadata>
<defs>
<font id="HeinzHeinrich-Regular" horiz-adv-x="2250" >
  <font-face 
    font-family="HeinzHeinrich"
    font-weight="400"
    font-stretch="normal"
    units-per-em="2000"
    panose-1="0 0 0 0 0 0 0 0 0 0"
    ascent="1600"
    descent="-400"
    x-height="1750"
    cap-height="2500"
    bbox="-250 -1000 4250 3500"
    underline-thickness="100"
    underline-position="-100"
    stemh="259"
    stemv="259"
    unicode-range="U+0020-2122"
  />
    <missing-glyph />
    <glyph glyph-name="space" unicode=" " horiz-adv-x="1000" 
 />
    <glyph glyph-name="exclam" unicode="!" horiz-adv-x="750" 
d="M500 508v-508h-500v508h500zM500 2500v-1504h-245v-249h-255v1753h500z" />
    <glyph glyph-name="quotedbl" unicode="&#x22;" horiz-adv-x="1500" 
d="M506 2500v-752h-248v-248h-258v257h248v238h-248v505h506zM1250 2500v-752h-248v-248h-258v257h248v238h-248v505h506z" />
    <glyph glyph-name="numbersign" unicode="#" horiz-adv-x="2500" 
d="M1244 1005h249v238h-487v-248h-249v-238h487v248zM2250 1502v-259h-249v-248h-249v-238h249v-259h-249v-248h-508v248h-487v-248h-508v248h-249v259h249v248h249v238h-249v259h249v248h508v-248h487v248h508v-248h249z" />
    <glyph glyph-name="dollar" unicode="$" horiz-adv-x="2750" 
d="M1504 257h239v987h-239v-987zM757 1504h488v488h-488v-488zM2500 506v-259h-249v-249h-259v249h-239v-249h-249v-499h-249v-249h-508v259h498v489h-498v249h-488v-249h-259v508h249v250h508v-250h249v-249h239v987h-488v-249h-259v249h-498v260h249v239h-249v259h249v249
h249v250h259v-250h488v250h249v249h259v-259h-249v-240h488v250h508v-509h-249v-249h-508v249h-239v-488h996v-260h-249v-738h249z" />
    <glyph glyph-name="percent" unicode="%" horiz-adv-x="3500" 
d="M508 1504h240v738h-240v-738zM2502 258h240v738h-240v-738zM1256 2252v-758h-249v-249h-758v249h-249v758h249v249h758v-249h249zM2253 2750v-1007h-249v-498h-249v-498h-250v-748h-249v-249h-259v1007h249v498h249v498h250v748h249v249h259zM3250 1006v-758h-249v-249
h-758v249h-249v758h249v249h758v-249h249z" />
    <glyph glyph-name="ampersand" unicode="&#x26;" horiz-adv-x="3250" 
d="M508 508h240v737h-240v-737zM748 1504v737h-240v-737h240zM1993 2002h250v239h-489v-249h-508v249h-239v-737h239v249h259v-259h-249v-249h-249v-737h488v498h249v249h249v747zM3000 757v-508h-249v-249h-508v249h-250v747h-239v-498h-249v-249h-249v-249h-758v249h-249
v249h-249v757h249v488h-249v508h249v249h1256v-249h239v249h508v-249h250v-498h239v249h259v-259h-249v-249h-249v-1235h239v498h259z" />
    <glyph glyph-name="quoteright" unicode="&#x2019;" horiz-adv-x="750" 
d="M500 2500v-752h-245v-248h-255v257h245v238h-245v505h500z" />
    <glyph glyph-name="parenleft" unicode="(" horiz-adv-x="1000" 
d="M750 258v-508h-257v498h-246v249h-247v1506h247v249h246v498h257v-508h-247v-1984h247z" />
    <glyph glyph-name="parenright" unicode=")" horiz-adv-x="1000" 
d="M750 2003v-1506h-247v-249h-246v-498h-257v508h247v1984h-247v508h257v-498h246v-249h247z" />
    <glyph glyph-name="asterisk" unicode="*" horiz-adv-x="2000" 
d="M1750 1004v-258h-497v-238h248v-258h-258v248h-239v-248h-258v248h-239v-248h-258v258h248v238h-497v258h497v238h-248v258h258v-248h239v248h258v-248h239v248h258v-258h-248v-238h497z" />
    <glyph glyph-name="plus" unicode="+" horiz-adv-x="1500" 
d="M1250 1004v-258h-496v-496h-258v496h-496v258h496v496h258v-496h496z" />
    <glyph glyph-name="comma" unicode="," horiz-adv-x="1000" 
d="M750 252v-504h-247v-248h-256v495h-247v257h247v248h256v-248h247z" />
    <glyph glyph-name="hyphen" unicode="-" horiz-adv-x="1500" 
d="M1250 1000v-250h-1250v250h1250z" />
    <glyph glyph-name="period" unicode="." horiz-adv-x="1000" 
d="M750 253v-256h-247v-247h-256v247h-247v256h247v247h256v-247h247z" />
    <glyph glyph-name="slash" unicode="/" horiz-adv-x="1500" 
d="M1250 2750v-1007h-248v-498h-248v-498h-248v-748h-248v-249h-258v1007h248v498h248v498h248v748h248v249h258z" />
    <glyph glyph-name="zero" unicode="0" 
d="M1493 508v1484h-249v249h-488v-249h-249v-1484h249v-249h488v249h249zM2000 2002v-1504h-249v-249h-249v-249h-1004v249h-249v249h-249v1504h249v249h249v249h1004v-249h249v-249h249z" />
    <glyph glyph-name="one" unicode="1" horiz-adv-x="1750" 
d="M1500 259v-259h-1500v259h497v1235h-497v259h248v249h249v249h248v249h258v-2241h497z" />
    <glyph glyph-name="two" unicode="2" 
d="M2000 757v-508h-249v-249h-1253v249h-239v-249h-259v757h249v249h249v249h746v249h249v488h-249v249h-737v-498h-507v508h249v249h1502v-249h249v-757h-249v-249h-249v-249h-746v-488h985v249h259z" />
    <glyph glyph-name="three" unicode="3" 
d="M2000 1006v-757h-249v-249h-1502v249h-249v757h507v-508h-248v-239h985v249h249v488h-249v249h-746v259h746v249h249v239h-249v249h-737v-498h-507v508h249v249h1502v-249h249v-508h-249v-249h-249v-239h249v-249h249z" />
    <glyph glyph-name="four" unicode="4" 
d="M264 1010h728v729h-232v-249h-248v-248h-248v-232zM2000 264v-264h-1504v264h496v481h-992v513h248v248h248v249h248v248h248v249h248v248h264v-1490h496v-265h-496v-481h496z" />
    <glyph glyph-name="five" unicode="5" 
d="M2000 1504v-1006h-249v-249h-249v-249h-1253v249h-249v757h507v-508h-248v-239h1234v737h-249v249h-249v249h-995v1006h507v-249h1234v249h259v-259h-249v-249h-1244v-239h1244v-249h249z" />
    <glyph glyph-name="six" unicode="6" 
d="M1493 259v986h-737v-249h-249v-737h986zM2000 1255v-757h-249v-249h-249v-249h-1004v249h-249v249h-249v1504h249v249h249v249h1004v-249h498v-508h-507v498h-986v-737h995v-249h498z" />
    <glyph glyph-name="seven" unicode="7" 
d="M2000 2500v-508h-249v-498h-249v-249h-248v-996h-249v-249h-259v249h-248v757h248v249h498v249h249v239h-249v249h-249v249h-488v-249h-248v-249h-259v757h259v-249h239v249h756v-249h487v249h259z" />
    <glyph glyph-name="eight" unicode="8" 
d="M1493 259v737h-498v249h-488v-986h986zM1244 2002h249v239h-986v-488h737v249zM2000 1255v-757h-249v-249h-249v-249h-1004v249h-249v249h-249v757h498v239h-249v249h-249v508h249v249h1253v-249h249v-508h-249v-239h249v-249h249z" />
    <glyph glyph-name="nine" unicode="9" 
d="M1244 1504h249v737h-986v-986h737v249zM2000 2251v-1753h-249v-249h-249v-249h-1253v249h-249v508h507v-498h986v737h-995v249h-498v1006h249v249h1502v-249h249z" />
    <glyph glyph-name="colon" unicode=":" horiz-adv-x="1000" 
d="M750 257v-258h-247v-249h-256v249h-247v258h247v249h256v-249h247zM750 1251v-258h-247v-249h-256v249h-247v258h247v249h256v-249h247z" />
    <glyph glyph-name="semicolon" unicode=";" horiz-adv-x="1000" 
d="M750 256v-507h-247v-249h-256v498h-247v258h247v249h256v-249h247zM750 1251v-258h-247v-249h-256v249h-247v258h247v249h256v-249h247z" />
    <glyph glyph-name="less" unicode="&#x3c;" horiz-adv-x="1250" 
d="M1000 757v-507h-257v248h-248v249h-247v248h-248v258h495v249h248v248h257v-258h-248v-249h-247v-238h247v-248h248z" />
    <glyph glyph-name="equal" unicode="=" horiz-adv-x="1750" 
d="M1500 757v-257h-1500v257h1500zM1500 1250v-257h-1500v257h1500z" />
    <glyph glyph-name="greater" unicode="&#x3e;" horiz-adv-x="1250" 
d="M1000 1253v-258h-248v-248h-247v-249h-248v-248h-257v507h248v248h247v238h-247v249h-248v258h257v-248h248v-249h495z" />
    <glyph glyph-name="question" unicode="?" horiz-adv-x="2000" 
d="M1253 508v-508h-507v508h507zM1750 2251v-757h-249v-249h-248v-249h-249v-249h-258v757h248v249h249v239h-249v249h-487v-239h249v-259h-249v-249h-258v249h-249v259h249v249h248v249h1004v-249h249z" />
    <glyph glyph-name="at" unicode="@" horiz-adv-x="3000" 
d="M756 505h241v242h-241v-242zM1496 1253h249v242h-491v-491h242v249zM2002 1004h491v740h-250v249h-249v250h-989v-250h-249v-249h-249v-989h241v249h249v748h499v249h257v-249h249v-748zM2750 1752v-756h-249v-249h-250v-250h-257v250h-249v249h-241v-249h-250v-250h-249
v-241h997v-249h249v-258h-249v-249h-257v257h249v242h-1246v249h-249v249h-250v250h-249v1005h249v249h250v250h249v249h1254v-249h249v-250h250v-249h249z" />
    <glyph glyph-name="A" unicode="A" horiz-adv-x="3250" 
d="M997 256v489h-240v-489h240zM1007 1004h239v240h-239v-240zM1993 1004v240h-249v249h-239v-489h488zM1256 1503h239v239h-239v-239zM3000 256v-259h-249v-249h-259v249h-748v259h249v489h-737v-748h-997v-738h987v499h259v-509h-249v-249h-1007v249h-249v758h249v249h249
v499h250v499h249v498h249v489h-489v-748h-259v758h250v249h508v-249h488v249h259v-249h249v-260h-249v-239h249v-498h250v-499h249v-499h249z" />
    <glyph glyph-name="B" unicode="B" horiz-adv-x="2750" 
d="M1006 256h239v738h-239v-738zM1992 256v988h-488v-988h488zM1006 1254h239v737h-239v-737zM1992 1503v738h-488v-738h488zM2500 1254v-1008h-249v-249h-1494v-249h-259v249h-239v-738h986v499h259v-509h-249v-249h-1006v249h-249v758h249v249h249v738h-239v-249h-259v259
h249v250h249v737h-249v260h259v-250h239v250h498v249h1006v-249h249v-758h-249v-239h249z" />
    <glyph glyph-name="C" unicode="C" horiz-adv-x="2500" 
d="M2250 1006v-508h-249v-249h-249v-249h-1005v249h-498v249h-249v1504h249v249h498v249h507v-259h-497v-249h-249v-1484h249v-249h736v1484h-239v-1245h-258v249h-249v1006h249v249h497v249h498v249h259v-259h-249v-249h-498v-239h249v-1245h239v498h259z" />
    <glyph glyph-name="D" unicode="D" horiz-adv-x="2750" 
d="M1006 256h239v1735h-239v-1735zM1504 256h488v1735h-488v-1735zM2500 1752v-1256h-249v-250h-249v-249h-1245v-249h-259v249h-239v-738h986v499h259v-509h-249v-249h-1006v249h-249v758h249v249h249v489h-239v-249h-259v259h249v249h249v240h-249v259h249v488h-249v250
h-249v259h259v-249h1743v-250h249v-249h249z" />
    <glyph glyph-name="E" unicode="E" horiz-adv-x="2750" 
d="M2500 1504v-757h-259v249h-249v249h-239v-986h239v249h259v-259h-249v-249h-1255v249h-498v249h-249v1504h249v249h498v249h508v-259h-498v-249h-249v-1484h249v-249h737v1484h-239v-1245h-259v249h-249v1006h249v249h498v249h498v249h259v-259h-249v-249h-498v-239h249
v-249h747z" />
    <glyph glyph-name="F" unicode="F" 
d="M1005 506h239v738h-239v-738zM1005 1503h239v488h-239v-488zM2000 256v-259h-1005v249h-488v-249h-248v-738h985v499h258v-509h-248v-249h-1005v249h-249v758h249v249h249v988h-239v-250h-259v260h249v249h249v488h-249v260h258v-250h239v250h249v249h507v-249h239v249
h259v-509h-498v-488h239v249h259v-259h-249v-249h-249v-988h498z" />
    <glyph glyph-name="G" unicode="G" horiz-adv-x="2750" 
d="M1753 508h239v737h-239v-737zM2500 1504v-757h-249v-249h-249v-249h-249v-249h-1006v249h-498v249h-249v1504h249v249h498v249h508v-259h-498v-249h-249v-1484h249v-249h737v1484h-239v-1245h-259v249h-249v1006h249v249h498v249h498v249h259v-259h-249v-249h-498v-239
h249v-249h747z" />
    <glyph glyph-name="H" unicode="H" horiz-adv-x="2750" 
d="M259 -741h986v738h-239v-249h-259v249h-488v-738zM1006 256h239v988h-239v-988zM1504 1503h239v488h-239v-488zM2500 256v-259h-249v-249h-259v249h-249v1247h-239v-1995h-249v-249h-1006v249h-249v758h249v249h249v988h-239v-250h-259v260h249v249h249v239h-249v259h249
v250h249v249h259v-997h239v498h249v250h498v249h259v-249h249v-260h-249v-488h249v-259h-249v-988h249z" />
    <glyph glyph-name="I" unicode="I" 
d="M1005 256h239v1735h-239v-1735zM2000 506v-260h-498v-249h-248v-249h-249v-249h-259v498h-487v-738h985v250h258v-260h-248v-249h-1005v249h-249v758h249v249h497v1985h-487v-489h248v-259h-258v249h-249v509h249v249h756v-249h249v-250h239v250h258v-1745h249z" />
    <glyph glyph-name="J" unicode="J" 
d="M1005 256h239v988h-239v-988zM1005 1752h239v239h-239v-239zM2000 506v-260h-498v-249h-248v-249h-249v-249h-259v498h-487v-738h985v250h258v-260h-248v-249h-1005v249h-249v758h249v249h497v738h-239v-249h-258v259h249v250h248v987h-487v-489h248v-259h-258v249h-249
v509h249v249h756v-249h249v-250h239v250h258v-1745h249z" />
    <glyph glyph-name="K" unicode="K" horiz-adv-x="2750" 
d="M259 -741h986v738h-498v249h-239v-249h-249v-738zM1006 256h239v738h-239v-738zM1743 1254h249v488h-239v-249h-249v-489h239v250zM2500 1004v-1256h-259v249h-249v997h-239v-249h-249v-1496h-249v-249h-1006v249h-249v1007h249v250h249v738h-239v-499h-259v509h249v249
h249v488h-239v-249h-259v259h249v250h249v249h259v-249h249v-997h239v997h249v249h259v-259h-249v-489h239v249h249v250h259v-499h249v-508h-498v-240h498z" />
    <glyph glyph-name="L" unicode="L" 
d="M1005 256h239v1735h-239v-1735zM2000 506v-260h-249v-249h-249v-249h-258v249h-249v249h-239v-249h-497v-738h985v250h258v-260h-248v-249h-1005v249h-249v758h249v249h249v489h-249v259h249v738h-249v259h497v250h498v249h258v-249h239v249h259v-259h-249v-250h-249
v-1735h239v250h259z" />
    <glyph glyph-name="M" unicode="M" horiz-adv-x="4000" 
d="M1007 256h240v988h-240v-988zM1007 1503h240v239h-240v-239zM2254 256h239v1486h-239v-1486zM3750 256v-259h-249v-249h-260v249h-249v1994h-239v-1994h-499v-249h-259v249h-250v1994h-239v-1994h-499v-249h-259v498h-239v-249h-250v-738h988v250h259v-260h-249v-249
h-1008v249h-249v758h249v249h250v738h-240v-249h-259v259h249v250h250v737h-240v-249h-259v259h249v250h250v249h259v-249h249v-250h240v499h259v-249h239v249h260v-249h249v-250h239v499h260v-249h239v249h259v-249h250v-250h249v-259h-249v-1486h249z" />
    <glyph glyph-name="N" unicode="N" horiz-adv-x="2750" 
d="M259 -741h986v2483h-239v-1994h-259v498h-239v-249h-249v-738zM2500 256v-259h-249v-249h-259v249h-249v1994h-239v-2742h-249v-249h-1006v249h-249v758h249v249h249v738h-239v-249h-259v259h249v250h249v737h-239v-249h-259v259h249v250h249v249h259v-249h249v-250h239
v499h259v-249h239v249h259v-249h249v-250h249v-259h-249v-1486h249z" />
    <glyph glyph-name="O" unicode="O" horiz-adv-x="2750" 
d="M747 508v1235h-239v-1235h239zM1006 259h488v1484h-239v-1245h-249v-239zM996 1753v239h-239v-239h239zM1753 508h239v1484h-239v-1484zM2500 1753v-1006h-249v-249h-249v-249h-249v-249h-1006v249h-249v249h-249v249h-249v1006h249v249h249v249h498v249h259v-259h-249
v-239h488v249h249v249h259v-498h249v-249h249z" />
    <glyph glyph-name="P" unicode="P" horiz-adv-x="2750" 
d="M259 -741h488v240h-249v498h-239v-738zM1006 256h239v1237h-239v-1237zM1992 506v1485h-239v-249h-249v-1486h239v250h249zM2500 2001v-1505h-249v-250h-498v-249h-747v-738h239v499h259v-509h-249v-249h-1006v249h-249v758h249v249h249v988h-239v-499h-259v509h249v249
h249v488h-239v-249h-259v259h249v250h249v249h259v-249h249v-499h239v249h249v250h249v249h259v-249h249v-250h249z" />
    <glyph glyph-name="Q" unicode="Q" horiz-adv-x="3000" 
d="M508 507h239v1236h-239v-1236zM1006 257h489v1486h-240v-1246h-249v-240zM2242 257h249v489h-239v-249h-249v-249h-249v-240h488v249zM757 1752h239v240h-239v-240zM1754 507h239v1485h-239v-1485zM2750 756v-758h-249v-249h-249v-249h-259v249h-249v249h-997v250h-249
v249h-249v249h-249v1006h249v250h249v249h498v249h259v-259h-249v-239h489v249h249v249h259v-498h249v-250h249v-996h249z" />
    <glyph glyph-name="R" unicode="R" horiz-adv-x="3250" 
d="M1007 256h239v738h-239v-738zM1744 1503h249v488h-239v-249h-249v-488h239v249zM3000 506v-260h-249v-249h-508v249h-250v998h-239v-250h-249v-997h-757v249h-240v-249h-249v-738h987v499h259v-509h-249v-249h-1007v249h-249v758h249v249h249v988h-239v-499h-259v509h249
v249h249v488h-239v-249h-259v259h249v250h249v249h259v-249h250v-997h239v498h249v249h249v250h249v249h259v-499h250v-249h249v-259h-748v-239h499v-998h239v250h259z" />
    <glyph glyph-name="S" unicode="S" horiz-adv-x="2750" 
d="M1504 256h239v988h-239v-988zM757 1503h239v488h-239v-488zM2500 506v-260h-249v-249h-259v249h-239v-249h-1006v249h-239v-249h-249v-738h986v499h259v-509h-249v-249h-1006v249h-249v1007h249v250h757v-250h239v988h-488v-250h-259v250h-498v259h249v239h-249v259h249
v250h249v249h259v-249h1235v249h508v-509h-249v-249h-508v249h-488v-488h1245v-259h-249v-738h249z" />
    <glyph glyph-name="T" unicode="T" horiz-adv-x="2500" 
d="M757 259h736v1484h-239v-1245h-258v249h-249v996h-239v-1235h249v-249zM757 1753h239v239h-239v-239zM2250 1006v-508h-249v-249h-249v-249h-1005v249h-498v249h-249v1006h249v249h249v249h249v239h-488v-249h-259v259h249v249h1005v-249h498v-249h239v249h259v-259h-249
v-249h-249v-1235h239v498h259z" />
    <glyph glyph-name="U" unicode="U" horiz-adv-x="3250" 
d="M3000 506v-260h-249v-249h-249v-249h-259v249h-250v249h-239v-249h-1006v249h-240v-249h-249v-738h987v499h259v-509h-249v-249h-1007v249h-249v758h249v249h249v988h-239v-499h-259v509h249v249h249v488h-239v-249h-259v259h249v250h249v249h259v-249h250v-1995h239
v1995h259v-1995h239v250h249v1745h250v249h259v-249h249v-260h-249v-1735h239v250h259z" />
    <glyph glyph-name="V" unicode="V" horiz-adv-x="2750" 
d="M2501 2251v-1257h-249v-249h-249v-249h-249v-250h-249v-249h-758v249h-239v-249h-249v-738h986v250h260v-260h-250v-249h-1006v249h-249v758h249v249h249v988h-239v-499h-259v509h249v249h249v488h-239v-249h-259v259h249v250h249v249h259v-249h249v-1995h239v1995h260
v-1745h239v249h249v1496l-1 250l250 -1l9 -250z" />
    <glyph glyph-name="W" unicode="W" horiz-adv-x="4500" 
d="M4250 256v-259h-249v-249h-260v249h-249v249h-240v-249h-1257v249h-239v-249h-1008v249h-239v-249h-250v-738h988v499h259v-509h-249v-249h-1008v249h-249v758h249v249h250v988h-240v-499h-259v509h249v249h250v488h-240v-249h-259v259h249v250h250v249h259v-249h250
v-1995h239v1995h259v-1995h240v250h249v1994h260v-249h249v-1995h240v1995h259v-1995h239v250h250v1994h259v-249h250v-250h249v-259h-249v-1486h249z" />
    <glyph glyph-name="X" unicode="X" horiz-adv-x="2750" 
d="M1743 506v738h-239v-738h239zM1504 1503h239v488h-239v-488zM2500 506v-260h-249v-249h-757v249h-249v250h-239v-250h-249v-249h-498v-738h986v499h259v-509h-249v-249h-1006v249h-249v1007h249v250h747v738h-239v-250h-259v509h498v488h-737v-249h-259v259h249v499h757
v-249h249v-250h239v250h249v249h508v-509h-249v-488h249v-259h-249v-988h239v250h259z" />
    <glyph glyph-name="Y" unicode="Y" horiz-adv-x="3000" 
d="M2750 2001v-259h-249v-2243h-249v-250h-249v-249h-1007v249h-249v509h259v-499h987v250h249v488h-249v249h-239v-249h-1007v249h-239v-249h-259v259h249v988h-239v-499h-259v509h249v249h249v488h-239v-249h-259v259h249v250h249v249h259v-249h249v-1995h239v1995h260
v-1995h239v250h249v1994h259v-249h249v-250h249z" />
    <glyph glyph-name="Z" unicode="Z" horiz-adv-x="2750" 
d="M1753 506h239v738h-239v-738zM1753 1503h239v488h-239v-488zM2500 1254v-758h-249v-250h-249v-249h-1743v-738h986v499h259v-509h-249v-249h-1006v249h-249v758h249v249h249v250h996v738h-239v-250h-259v260h249v249h249v488h-996v250h-249v259h259v-249h488v249h1255
v-249h249v-509h-249v-488h249z" />
    <glyph glyph-name="bracketleft" unicode="[" horiz-adv-x="1000" 
d="M750 9v-259h-750v3000h750v-259h-247v-2482h247z" />
    <glyph glyph-name="backslash" unicode="\" horiz-adv-x="1500" 
d="M1250 757v-1007h-258v249h-248v748h-248v498h-248v498h-248v1007h258v-249h248v-748h248v-498h248v-498h248z" />
    <glyph glyph-name="bracketright" unicode="]" horiz-adv-x="1000" 
d="M750 2750v-3000h-750v259h247v2482h-247v259h750z" />
    <glyph glyph-name="asciicircum" unicode="^" horiz-adv-x="1750" 
d="M1500 2007v-257h-258v247h-249v246h-238v-246h-248v-247h-507v257h248v246h249v247h506v-247h249v-246h248z" />
    <glyph glyph-name="underscore" unicode="_" horiz-adv-x="1750" 
d="M1500 250v-250h-1500v250h1500z" />
    <glyph glyph-name="quoteleft" unicode="&#x2018;" horiz-adv-x="750" 
d="M500 2005v-505h-500v752h245v248h255v-257h-245v-238h245z" />
    <glyph glyph-name="a" unicode="a" 
d="M995 506h249v737h-488v-986h239v249zM2000 257v-258h-249v-249h-258v249h-249v249h-239v-249h-249v-249h-258v249h-249v249h-249v258h249v995h746v249h259v-249h497v-1244h249z" />
    <glyph glyph-name="b" unicode="b" horiz-adv-x="2000" 
d="M756 258h487v986h-239v-249h-248v-737zM1750 1503v-1255h-249v-249h-994v-249h-258v498h-249v259h249v1743h507v-996h238v249h249v249h258v-249h249z" />
    <glyph glyph-name="c" unicode="c" horiz-adv-x="1750" 
d="M1500 506v-258h-248v-249h-249v-249h-258v249h-248v249h-497v258h248v995h994v249h258v-507h-745v-986h487v249h258z" />
    <glyph glyph-name="d" unicode="d" horiz-adv-x="2000" 
d="M507 258h487v737h-248v249h-239v-986zM1750 258v-259h-249v-249h-258v249h-994v249h-249v1255h249v249h258v-249h249v-249h238v737h-248v259h507v-249h248v-1743h249z" />
    <glyph glyph-name="e" unicode="e" horiz-adv-x="2000" 
d="M994 1004h249v239h-487v-488h238v249zM1750 506v-258h-249v-249h-497v-249h-258v249h-249v249h-497v258h249v995h994v249h258v-249h249v-507h-497v-249h-249v-249h-248v-239h735v249h259z" />
    <glyph glyph-name="f" unicode="f" horiz-adv-x="1500" 
d="M1250 1752v-259h-248v-249h-248v-1995h-248v-249h-258v1994h-248v260h248v747h248v250h248v249h258v-249h248v-260h-496v-488h238v249h258z" />
    <glyph glyph-name="g" unicode="g" 
d="M995 505h249v737h-488v-986h239v249zM2000 256v-259h-249v-498h-249v-249h-1004v249h-249v259h506v-249h489v737h-239v-249h-756v249h-249v259h249v996h746v249h259v-249h497v-249h249v-259h-249v-737h249z" />
    <glyph glyph-name="h" unicode="h" horiz-adv-x="2000" 
d="M1750 1503v-1505h-249v-249h-248v-249h-259v259h249v1485h-239v-249h-248v-997h-249v-249h-258v498h-249v259h249v1744h507v-996h238v249h249v249h258v-249h249z" />
    <glyph glyph-name="i" unicode="i" horiz-adv-x="1000" 
d="M750 258v-259h-247v-249h-256v249h-247v1505h750v-259h-247v-987h247zM503 2500v-508h-246v-249h-257v757h503z" />
    <glyph glyph-name="j" unicode="j" horiz-adv-x="1000" 
d="M750 257v-259h-248v-250h-247v-249h-248v-249h-257v259h248v1993h752v-259h-248v-986h248zM502 2500v-509h-247v-249h-257v758h504z" />
    <glyph glyph-name="k" unicode="k" horiz-adv-x="2000" 
d="M756 756h487v488h-239v-249h-248v-239zM1750 507v-508h-249v-249h-258v747h-487v-498h-249v-249h-258v498h-249v259h249v1743h507v-996h238v249h249v249h258v-249h249v-757h-249v-239h249z" />
    <glyph glyph-name="l" unicode="l" horiz-adv-x="1000" 
d="M750 258v-259h-247v-249h-256v249h-247v2251h257v-249h246v-1743h247z" />
    <glyph glyph-name="m" unicode="m" horiz-adv-x="3250" 
d="M3000 257v-258h-249v-249h-259v249h-249v1244h-240v-249h-249v-737h249v-258h-249v-249h-259v249h-249v1244h-239v-249h-250v-737h250v-258h-250v-249h-259v249h-249v249h-249v258h249v737h-249v258h249v249h259v-249h249v-249h240v249h249v249h259v-249h249v-249h239
v249h250v249h259v-249h249v-1244h249z" />
    <glyph glyph-name="n" unicode="n" 
d="M2000 257v-258h-249v-249h-258v249h-249v1244h-239v-249h-249v-737h249v-258h-249v-249h-258v249h-249v249h-249v258h249v737h-249v258h249v249h258v-249h249v-249h239v249h249v249h258v-249h498v-258h-249v-986h249z" />
    <glyph glyph-name="o" unicode="o" horiz-adv-x="2000" 
d="M756 257h487v986h-487v-986zM1750 1501v-1253h-249v-249h-745v-249h-259v249h-248v249h-249v258h249v995h994v249h258v-249h249z" />
    <glyph glyph-name="p" unicode="p" 
d="M757 257h486v983h-237v-249h-249v-734zM2000 257v-261h-497v-249h-260v249h-486v-996h-260v249h-248v747h-249v261h249v734h-249v261h249v249h508v-249h237v498h260v-249h498v-1244h248z" />
    <glyph glyph-name="q" unicode="q" 
d="M756 255h488v738h-249v249h-239v-987zM2000 255v-259h-249v-747h-249v-249h-258v996h-488v-249h-258v249h-498v259h249v1246h497v249h259v-498h239v249h507v-249h249v-259h-249v-738h249z" />
    <glyph glyph-name="r" unicode="r" horiz-adv-x="1750" 
d="M1500 1501v-258h-248v-249h-259v249h-238v-986h248v-258h-248v-249h-258v249h-249v249h-248v258h248v737h-248v258h248v249h259v-249h486v249h259v-249h248z" />
    <glyph glyph-name="s" unicode="s" horiz-adv-x="1750" 
d="M1500 1004v-756h-248v-249h-497v-249h-258v249h-249v258h745v488h-238v-249h-755v756h248v249h497v249h258v-249h249v-258h-745v-488h238v249h755z" />
    <glyph glyph-name="t" unicode="t" horiz-adv-x="1250" 
d="M1002 258v-259h-248v-249h-258v249h-248v1245h-248v259h248v498h248v249h258v-747h246v-259h-246v-986h248z" />
    <glyph glyph-name="u" unicode="u" 
d="M2000 257v-258h-249v-249h-258v249h-249v249h-239v-249h-249v-249h-258v249h-249v249h-249v258h249v737h-249v258h249v249h258v-249h249v-1244h239v249h249v737h-249v258h249v249h258v-249h498v-258h-249v-986h249z" />
    <glyph glyph-name="v" unicode="v" horiz-adv-x="2000" 
d="M1750 1501l1 -1005h-249v-248h-497v-249h-249v-249h-258v249h-249v1244h-249v258h249v249h258v-249h249v-1244h239v249h249v737h-249v258h249v249h258v-249h248z" />
    <glyph glyph-name="w" unicode="w" horiz-adv-x="3250" 
d="M3000 1501v-258h-249v-995h249v-253h-245v-245h-255v249h-497v-249h-259v249h-249v249h-239v-249h-249v-249h-259v249h-250v249h-249v995h-249v258h249v249h259v-249h249v-1244h489v986h-249v258h249v249h259v-249h249v-1244h489v986h-250v258h250v249h259v-249h498z" />
    <glyph glyph-name="x" unicode="x" horiz-adv-x="2000" 
d="M1750 1501v-258h-249v-249h-248v-249h-249v-488h249v-258h-249v-249h-258v249h-249v497h-238v-497h-259v507h249v249h248v488h-248v258h248v249h259v-249h248v-497h239v746h258v-249h249z" />
    <glyph glyph-name="y" unicode="y" horiz-adv-x="2000" 
d="M1750 1501l1 -1753h-249v-249h-248v-249h-508v259h498v737h-239v-249h-249v-249h-258v249h-249v1245h-249v259h249v249h258v-249h249v-1245h239v249h249v737h-249v259h249v249h258v-249h248z" />
    <glyph glyph-name="z" unicode="z" horiz-adv-x="1500" 
d="M1250 754v-757h-248v-249h-496v-239h248v-259h-258v249h-248v259h248v249h248v488h-248v249h-248v259h248v488h-238v-249h-258v259h248v249h506v-249h248v-508h-248v-239h496z" />
    <glyph glyph-name="braceleft" unicode="{" horiz-adv-x="1250" 
d="M1000 258v-259h-248v-249h-257v249h-247v1246h-248v259h248v997h247v249h257v-249h248v-259h-248v-748h-247v-239h247v-997h248z" />
    <glyph glyph-name="bar" unicode="|" horiz-adv-x="750" 
d="M500 2750v-3001h-245v-249h-255v3001h245v249h255z" />
    <glyph glyph-name="braceright" unicode="}" horiz-adv-x="1250" 
d="M1000 1504v-259h-248v-1246h-247v-249h-257v249h-248v259h248v997h247v239h-247v748h-248v259h248v249h257v-249h247v-997h248z" />
    <glyph glyph-name="asciitilde" unicode="~" horiz-adv-x="1750" 
d="M1500 2500v-257h-248v-246h-249v-247h-258v247h-248v246h-239v-246h-258v256h248v247h507v-247h487v247h258z" />
    <glyph glyph-name="cent" unicode="&#xa2;" horiz-adv-x="2000" 
d="M756 257h238v986h-238v-986zM1750 506v-258h-249v-249h-248v-249h-259v249h-497v249h-497v258h249v995h745v249h259v-249h238v249h259v-507h-497v-986h238v249h259z" />
    <glyph glyph-name="florin" unicode="&#x192;" horiz-adv-x="1250" 
d="M1000 1753v-259h-248v-1995h-247v-249h-257v249h-248v260h248v2742h247v249h257v-249h248v-260h-248v-488h248z" />
    <glyph glyph-name="section" unicode="&#xa7;" horiz-adv-x="2000" 
d="M509 -489h732v237h-248v249h-484v-486zM1253 9h237v486h-249v249h-496v249h-248v249h-237v-486h249v-249h496v-249h248v-249zM509 1503h484v486h-733v-237h249v-249zM1750 756v-759h-248v-498h-249v-249h-1005v249h-248v510h497v237h-249v249h-248v759h248v237h-248v510
h248v249h1005v-249h249v-510h-497v-237h248v-249h249v-249h248z" />
    <glyph glyph-name="quotesingle" unicode="'" horiz-adv-x="750" 
d="M500 2500v-752h-245v-248h-255v257h245v238h-245v505h500z" />
    <glyph glyph-name="quotedblleft" unicode="&#x201c;" horiz-adv-x="1500" 
d="M506 1757v-257h-258v248h-248v752h506v-505h-248v-238h248zM1250 1757v-257h-258v248h-248v752h506v-505h-248v-238h248z" />
    <glyph glyph-name="guillemotleft" unicode="&#xab;" horiz-adv-x="2000" 
d="M510 1007h234v234h-234v-234zM758 759h234v234h-234v-234zM1750 759v-509h-262v248h-248v247h-234v-495h-262v248h-248v247h-248v248h-248v262h496v247h248v248h262v-262h-248v-233h482v247h248v248h262v-262h-248v-247h-248v-234h248v-248h248z" />
    <glyph glyph-name="guilsinglleft" unicode="&#x2039;" horiz-adv-x="1000" 
d="M750 757v-507h-257v248h-246v249h-247v506h247v249h246v248h257v-258h-247v-249h-246v-238h246v-248h247z" />
    <glyph glyph-name="guilsinglright" unicode="&#x203a;" horiz-adv-x="1000" 
d="M750 1253v-506h-247v-249h-246v-248h-257v507h247v248h246v238h-246v249h-247v258h257v-248h246v-249h247z" />
    <glyph glyph-name="endash" unicode="&#x2013;" horiz-adv-x="1000" 
d="M750 1000v-250h-750v250h750z" />
    <glyph glyph-name="dagger" unicode="&#x2020;" horiz-adv-x="2500" 
d="M259 1504h239v239h-239v-239zM1752 1504h239v239h-239v-239zM2250 1753v-259h-249v-249h-259v249h-488v-239h249v-508h-249v-747h-258v747h-249v508h249v239h-488v-249h-259v249h-249v259h249v249h259v-249h488v239h-249v259h249v249h258v-249h249v-259h-249v-239h488
v249h259v-249h249z" />
    <glyph glyph-name="daggerdbl" unicode="&#x2021;" horiz-adv-x="2500" 
d="M259 507h239v239h-239v-239zM259 1504h239v239h-239v-239zM1752 507h239v239h-239v-239zM1752 1504h239v239h-239v-239zM2250 756v-259h-249v-249h-259v249h-488v-239h249v-259h-249v-249h-258v249h-249v259h249v239h-488v-249h-259v249h-249v259h249v249h259v-249h488
v239h-249v260h249v239h-488v-249h-259v249h-249v259h249v249h259v-249h488v239h-249v259h249v249h258v-249h249v-259h-249v-239h488v249h259v-249h249v-259h-249v-249h-259v249h-488v-239h249v-260h-249v-239h488v249h259v-249h249z" />
    <glyph glyph-name="periodcentered" unicode="&#xb7;" horiz-adv-x="750" 
d="M500 1250v-500h-500v500h500z" />
    <glyph glyph-name="paragraph" unicode="&#xb6;" 
d="M507 1504h239v737h-239v-737zM1254 1504h239v737h-239v-737zM2000 2500v-2251h-249v-249h-258v1245h-239v-747h-249v-249h-249v-249h-507v249h-249v508h249v249h258v-259h-248v-488h487v986h-248v249h-498v757h498v249h1502z" />
    <glyph glyph-name="bullet" unicode="&#x2022;" horiz-adv-x="1500" 
d="M1250 1004v-258h-248v-248h-248v-248h-258v248h-248v248h-248v258h248v248h248v248h258v-248h248v-248h248z" />
    <glyph glyph-name="quotesinglbase" unicode="&#x201a;" horiz-adv-x="750" 
d="M500 257v-257h-255v248h-245v752h500v-505h-245v-238h245z" />
    <glyph glyph-name="quotedblbase" unicode="&#x201e;" horiz-adv-x="1500" 
d="M506 257v-257h-258v248h-248v752h506v-505h-248v-238h248zM1250 257v-257h-258v248h-248v752h506v-505h-248v-238h248z" />
    <glyph glyph-name="quotedblright" unicode="&#x201d;" horiz-adv-x="1500" 
d="M506 2500v-752h-248v-248h-258v257h248v238h-248v505h506zM1250 2500v-752h-248v-248h-258v257h248v238h-248v505h506z" />
    <glyph glyph-name="guillemotright" unicode="&#xbb;" horiz-adv-x="2000" 
d="M759 761h232v231h-232v-231zM1007 1008h232v231h-232v-231zM1750 1255v-263h-248v-247h-247v-248h-248v-247h-264v495h-232v-248h-247v-247h-264v511h248v247h247v231h-247v248h-248v263h264v-247h247v-248h480v232h-248v263h264v-247h248v-248h495z" />
    <glyph glyph-name="ellipsis" unicode="&#x2026;" horiz-adv-x="3000" 
d="M757 253v-256h-249v-247h-259v247h-249v256h249v247h259v-247h249zM1754 253v-256h-249v-247h-260v247h-249v256h249v247h260v-247h249zM2750 253v-256h-249v-247h-259v247h-249v256h249v247h259v-247h249z" />
    <glyph glyph-name="grave" unicode="`" horiz-adv-x="1000" 
d="M750 2007v-257h-257v247h-493v503h257v-247h246v-246h247z" />
    <glyph glyph-name="acute" unicode="&#xb4;" horiz-adv-x="1000" 
d="M750 2500v-503h-493v-247h-257v257h247v246h246v247h257z" />
    <glyph glyph-name="circumflex" unicode="&#x2c6;" horiz-adv-x="1750" 
d="M1500 2007v-257h-258v247h-249v246h-238v-246h-248v-247h-507v257h248v246h249v247h506v-247h249v-246h248z" />
    <glyph glyph-name="tilde" unicode="&#x2dc;" horiz-adv-x="1750" 
d="M1500 2500v-257h-248v-246h-249v-247h-258v247h-248v246h-239v-246h-258v256h248v247h507v-247h487v247h258z" />
    <glyph glyph-name="macron" unicode="&#xaf;" horiz-adv-x="1250" 
d="M1000 2500v-255h-495v-245h-505v500h1000z" />
    <glyph glyph-name="dieresis" unicode="&#xa8;" horiz-adv-x="1500" 
d="M506 2500v-503h-248v-247h-258v503h248v247h258zM1250 2500v-503h-248v-247h-258v503h248v247h258z" />
    <glyph glyph-name="emdash" unicode="&#x2014;" horiz-adv-x="2000" 
d="M1750 1000v-250h-1750v250h1750z" />
    <glyph glyph-name="ordfeminine" unicode="&#xaa;" horiz-adv-x="1750" 
d="M739 2258h247v226h-472v-473h225v247zM1500 1269v-269h-1500v269h1500zM1500 2011v-269h-246v-247h-268v494h-225v-247h-247v-247h-268v247h-246v269h246v494h247v248h246v247h268v-247h247v-742h246z" />
    <glyph glyph-name="ordmasculine" unicode="&#xba;" horiz-adv-x="1750" 
d="M507 1756h486v735h-486v-735zM1500 1259v-259h-1500v259h1500zM1500 2501v-258h-248v-497h-249v-249h-1003v259h248v745h249v249h506v-249h497z" />
    <glyph glyph-name="germandbls" unicode="&#xdf;" horiz-adv-x="1750" 
d="M745 256h248v489h-486v-738h238v249zM507 1004h486v489h-486v-489zM1500 -242v-509h-248v-249h-507v249h-248v748h-239v-997h-258v3001h248v250h497v249h507v-259h-249v-250h-745v-239h994v-249h248v-509h-248v-239h248v-509h-248v-249h-249v-249h-248v-489h487v499h258z
" />
    <glyph glyph-name="onesuperior" unicode="&#xb9;" horiz-adv-x="1250" 
d="M1000 1508v-258h-1000v258h248v487h-248v258h248v249h247v248h257v-1242h248z" />
    <glyph glyph-name="trademark" unicode="&#x2122;" horiz-adv-x="3750" 
d="M499 1756h249v238h-249v249h-240v-736h240v249zM509 2253h488v239h-488v-239zM1755 2253v-259h-509v249h-239v-746h-498v-239h737v498h260v-508h-250v-249h-757v249h-250v249h-249v756h249v249h250v239h-250v259h260v-249h747v-249h250v-249h249zM3500 2751v-1503h-259
v995h-240v-995h-259v995h-239v-746h-249v-249h-250v-239h997v-259h-1007v249h-249v259h249v249h250v736h-250v249h-249v259h259v-249h240v249h259v-249h239v249h259v-249h240v249h259z" />
    <glyph glyph-name="plusminus" unicode="&#xb1;" horiz-adv-x="1500" 
d="M1250 258v-258h-1250v258h496v487h-496v258h496v497h258v-497h496v-258h-496v-487h496z" />
    <glyph glyph-name="brokenbar" unicode="&#xa6;" horiz-adv-x="750" 
d="M500 1255v-1255h-500v1006h245v249h255zM500 2750v-1006h-245v-249h-255v1255h500z" />
    <glyph glyph-name="degree" unicode="&#xb0;" horiz-adv-x="1250" 
d="M257 2007h486v486h-486v-486zM1000 2502v-504h-248v-248h-504v248h-248v504h248v248h504v-248h248z" />
    <glyph glyph-name="twosuperior" unicode="&#xb2;" horiz-adv-x="1750" 
d="M507 1508h486v239h-486v-239zM1500 1757v-259h-248v-248h-755v248h-239v-248h-258v507h248v248h497v487h-487v-249h-258v259h248v248h755v-248h249v-507h-249v-238h497z" />
    <glyph glyph-name="registered" unicode="&#xae;" horiz-adv-x="2750" 
d="M508 1259h1484v239h-249v248h-488v-248h-508v248h-488v-239h249v-248zM2002 1507h239v986h-249v248h-1484v-239h1245v-248h249v-259h-249v-239h249v-249zM1255 2005h488v239h-488v-239zM2500 2502v-1004h-249v-249h-249v-249h-1504v249h-249v249h-249v258h249v249h498
v239h-249v249h-249v258h249v249h1504v-249h249v-249h249z" />
    <glyph glyph-name="multiply" unicode="&#xd7;" horiz-adv-x="1250" 
d="M1000 757v-257h-257v247h-486v-247h-257v257h248v236h-248v257h257v-247h486v247h257v-257h-248v-236h248z" />
    <glyph glyph-name="threesuperior" unicode="&#xb3;" horiz-adv-x="1750" 
d="M1500 2005v-507h-248v-248h-1004v248h-248v259h507v-249h486v487h-496v258h496v239h-735v-249h-258v259h248v248h1004v-248h248v-259h-248v-238h248z" />
    <glyph glyph-name="copyright" unicode="&#xa9;" horiz-adv-x="2500" 
d="M508 1259h1234v239h-995v248h-249v747h-239v-986h249v-248zM1742 2005h249v488h-249v248h-1234v-239h995v-258h-497v-488h736v249zM2250 2502v-507h-249v-249h-249v-239h249v-258h-249v-249h-1254v249h-249v249h-249v1004h249v249h249v249h1254v-249h249v-249h249z" />
    <glyph glyph-name="Aacute" unicode="&#xc1;" horiz-adv-x="3250" 
d="M997 256v489h-240v-489h240zM1007 1004h239v240h-239v-240zM1993 1004v240h-249v249h-239v-489h488zM1256 1503h239v239h-239v-239zM3000 256v-259h-249v-249h-259v249h-748v259h249v489h-737v-748h-997v-738h987v499h259v-509h-249v-249h-1007v249h-249v758h249v249h249
v499h250v499h249v498h249v489h-489v-748h-259v758h250v249h508v-249h488v249h259v-249h249v-260h-249v-239h249v-498h250v-499h249v-499h249zM2000 3500v-503h-493v-247h-257v257h247v246h246v247h257z" />
    <glyph glyph-name="Acircumflex" unicode="&#xc2;" horiz-adv-x="3250" 
d="M997 256v489h-240v-489h240zM1007 1004h239v240h-239v-240zM1993 1004v240h-249v249h-239v-489h488zM1256 1503h239v239h-239v-239zM3000 256v-259h-249v-249h-259v249h-748v259h249v489h-737v-748h-997v-738h987v499h259v-509h-249v-249h-1007v249h-249v758h249v249h249
v499h250v499h249v498h249v489h-489v-748h-259v758h250v249h508v-249h488v249h259v-249h249v-260h-249v-239h249v-498h250v-499h249v-499h249zM2250 3007v-257h-258v247h-249v246h-238v-246h-248v-247h-507v257h248v246h249v247h506v-247h249v-246h248z" />
    <glyph glyph-name="Adieresis" unicode="&#xc4;" horiz-adv-x="3250" 
d="M997 256v489h-240v-489h240zM1007 1004h239v240h-239v-240zM1993 1004v240h-249v249h-239v-489h488zM1256 1503h239v239h-239v-239zM3000 256v-259h-249v-249h-259v249h-748v259h249v489h-737v-748h-997v-738h987v499h259v-509h-249v-249h-1007v249h-249v758h249v249h249
v499h250v499h249v498h249v489h-489v-748h-259v758h250v249h508v-249h488v249h259v-249h249v-260h-249v-239h249v-498h250v-499h249v-499h249zM1506 3500v-503h-248v-247h-258v503h248v247h258zM2250 3500v-503h-248v-247h-258v503h248v247h258z" />
    <glyph glyph-name="Agrave" unicode="&#xc0;" horiz-adv-x="3250" 
d="M997 256v489h-240v-489h240zM1007 1004h239v240h-239v-240zM1993 1004v240h-249v249h-239v-489h488zM1256 1503h239v239h-239v-239zM3000 256v-259h-249v-249h-259v249h-748v259h249v489h-737v-748h-997v-738h987v499h259v-509h-249v-249h-1007v249h-249v758h249v249h249
v499h250v499h249v498h249v489h-489v-748h-259v758h250v249h508v-249h488v249h259v-249h249v-260h-249v-239h249v-498h250v-499h249v-499h249zM1500 3007v-257h-257v247h-493v503h257v-247h246v-246h247z" />
    <glyph glyph-name="Aring" unicode="&#xc5;" horiz-adv-x="3250" 
d="M1507 3007h236v236h-236v-236zM2000 3253v-256h-247v-247h-256v247h-247v256h247v247h256v-247h247zM997 256v489h-240v-489h240zM1007 1004h239v240h-239v-240zM1993 1004v240h-249v249h-239v-489h488zM1256 1503h239v239h-239v-239zM3000 256v-259h-249v-249h-259v249
h-748v259h249v489h-737v-748h-997v-738h987v499h259v-509h-249v-249h-1007v249h-249v758h249v249h249v499h250v499h249v498h249v489h-489v-748h-259v758h250v249h508v-249h488v249h259v-249h249v-260h-249v-239h249v-498h250v-499h249v-499h249z" />
    <glyph glyph-name="Atilde" unicode="&#xc3;" horiz-adv-x="3250" 
d="M2250 3500v-257h-248v-246h-249v-247h-258v247h-248v246h-239v-246h-258v256h248v247h507v-247h487v247h258zM997 256v489h-240v-489h240zM1007 1004h239v240h-239v-240zM1993 1004v240h-249v249h-239v-489h488zM1256 1503h239v239h-239v-239zM3000 256v-259h-249v-249
h-259v249h-748v259h249v489h-737v-748h-997v-738h987v499h259v-509h-249v-249h-1007v249h-249v758h249v249h249v499h250v499h249v498h249v489h-489v-748h-259v758h250v249h508v-249h488v249h259v-249h249v-260h-249v-239h249v-498h250v-499h249v-499h249z" />
    <glyph glyph-name="Ccedilla" unicode="&#xc7;" horiz-adv-x="2500" 
d="M2250 1005v-509h-249v-249h-249v-249h-498v-250h-248v-249h-498v-249h-259v259h249v249h498v240h-249v249h-498v249h-249v1506h249v249h498v249h507v-259h-497v-249h-249v-1486h249v-249h736v1485h-239v-1246h-258v249h-249v1007h249v250h497v249h498v249h259v-259h-249
v-249h-498v-240h249v-1246h239v499h259z" />
    <glyph glyph-name="Eacute" unicode="&#xc9;" horiz-adv-x="2750" 
d="M2500 1504v-757h-259v249h-249v249h-239v-986h239v249h259v-259h-249v-249h-1255v249h-498v249h-249v1504h249v249h498v249h508v-259h-498v-249h-249v-1484h249v-249h737v1484h-239v-1245h-259v249h-249v1006h249v249h498v249h498v249h259v-259h-249v-249h-498v-239h249
v-249h747zM1750 3500v-503h-493v-247h-257v257h247v246h246v247h257z" />
    <glyph glyph-name="Ecircumflex" unicode="&#xca;" horiz-adv-x="2750" 
d="M2000 3007v-257h-258v247h-249v246h-238v-246h-248v-247h-507v257h248v246h249v247h506v-247h249v-246h248zM2500 1504v-757h-259v249h-249v249h-239v-986h239v249h259v-259h-249v-249h-1255v249h-498v249h-249v1504h249v249h498v249h508v-259h-498v-249h-249v-1484h249
v-249h737v1484h-239v-1245h-259v249h-249v1006h249v249h498v249h498v249h259v-259h-249v-249h-498v-239h249v-249h747z" />
    <glyph glyph-name="Edieresis" unicode="&#xcb;" horiz-adv-x="2750" 
d="M2500 1504v-757h-259v249h-249v249h-239v-986h239v249h259v-259h-249v-249h-1255v249h-498v249h-249v1504h249v249h498v249h508v-259h-498v-249h-249v-1484h249v-249h737v1484h-239v-1245h-259v249h-249v1006h249v249h498v249h498v249h259v-259h-249v-249h-498v-239h249
v-249h747zM1256 3500v-503h-248v-247h-258v503h248v247h258zM2000 3500v-503h-248v-247h-258v503h248v247h258z" />
    <glyph glyph-name="Egrave" unicode="&#xc8;" horiz-adv-x="2750" 
d="M1500 3007v-257h-257v247h-493v503h257v-247h246v-246h247zM2500 1504v-757h-259v249h-249v249h-239v-986h239v249h259v-259h-249v-249h-1255v249h-498v249h-249v1504h249v249h498v249h508v-259h-498v-249h-249v-1484h249v-249h737v1484h-239v-1245h-259v249h-249v1006
h249v249h498v249h498v249h259v-259h-249v-249h-498v-239h249v-249h747z" />
    <glyph glyph-name="Iacute" unicode="&#xcd;" 
d="M1005 256h239v1735h-239v-1735zM2000 506v-260h-498v-249h-248v-249h-249v-249h-259v498h-487v-738h985v250h258v-260h-248v-249h-1005v249h-249v758h249v249h497v1985h-487v-489h248v-259h-258v249h-249v509h249v249h756v-249h249v-250h239v250h258v-1745h249z
M1750 3500v-503h-493v-247h-257v257h247v246h246v247h257z" />
    <glyph glyph-name="Icircumflex" unicode="&#xce;" 
d="M1750 3007v-257h-258v247h-249v246h-238v-246h-248v-247h-507v257h248v246h249v247h506v-247h249v-246h248zM1005 256h239v1735h-239v-1735zM2000 506v-260h-498v-249h-248v-249h-249v-249h-259v498h-487v-738h985v250h258v-260h-248v-249h-1005v249h-249v758h249v249
h497v1985h-487v-489h248v-259h-258v249h-249v509h249v249h756v-249h249v-250h239v250h258v-1745h249z" />
    <glyph glyph-name="Idieresis" unicode="&#xcf;" 
d="M1005 256h239v1735h-239v-1735zM2000 506v-260h-498v-249h-248v-249h-249v-249h-259v498h-487v-738h985v250h258v-260h-248v-249h-1005v249h-249v758h249v249h497v1985h-487v-489h248v-259h-258v249h-249v509h249v249h756v-249h249v-250h239v250h258v-1745h249z
M1006 3500v-503h-248v-247h-258v503h248v247h258zM1750 3500v-503h-248v-247h-258v503h248v247h258z" />
    <glyph glyph-name="Igrave" unicode="&#xcc;" 
d="M1250 3007v-257h-257v247h-493v503h257v-247h246v-246h247zM1005 256h239v1735h-239v-1735zM2000 506v-260h-498v-249h-248v-249h-249v-249h-259v498h-487v-738h985v250h258v-260h-248v-249h-1005v249h-249v758h249v249h497v1985h-487v-489h248v-259h-258v249h-249v509
h249v249h756v-249h249v-250h239v250h258v-1745h249z" />
    <glyph glyph-name="Ntilde" unicode="&#xd1;" horiz-adv-x="2750" 
d="M259 -741h986v2483h-239v-1994h-259v498h-239v-249h-249v-738zM2500 256v-259h-249v-249h-259v249h-249v1994h-239v-2742h-249v-249h-1006v249h-249v758h249v249h249v738h-239v-249h-259v259h249v250h249v737h-239v-249h-259v259h249v250h249v249h259v-249h249v-250h239
v499h259v-249h239v249h259v-249h249v-250h249v-259h-249v-1486h249zM2000 3500v-257h-248v-246h-249v-247h-258v247h-248v246h-239v-246h-258v256h248v247h507v-247h487v247h258z" />
    <glyph glyph-name="Oacute" unicode="&#xd3;" horiz-adv-x="2750" 
d="M747 508v1235h-239v-1235h239zM1006 259h488v1484h-239v-1245h-249v-239zM996 1753v239h-239v-239h239zM1753 508h239v1484h-239v-1484zM2500 1753v-1006h-249v-249h-249v-249h-249v-249h-1006v249h-249v249h-249v249h-249v1006h249v249h249v249h498v249h259v-259h-249
v-239h488v249h249v249h259v-498h249v-249h249zM2000 3500v-503h-493v-247h-257v257h247v246h246v247h257z" />
    <glyph glyph-name="Ocircumflex" unicode="&#xd4;" horiz-adv-x="2750" 
d="M2000 3007v-257h-258v247h-249v246h-238v-246h-248v-247h-507v257h248v246h249v247h506v-247h249v-246h248zM747 508v1235h-239v-1235h239zM1006 259h488v1484h-239v-1245h-249v-239zM996 1753v239h-239v-239h239zM1753 508h239v1484h-239v-1484zM2500 1753v-1006h-249
v-249h-249v-249h-249v-249h-1006v249h-249v249h-249v249h-249v1006h249v249h249v249h498v249h259v-259h-249v-239h488v249h249v249h259v-498h249v-249h249z" />
    <glyph glyph-name="Odieresis" unicode="&#xd6;" horiz-adv-x="2750" 
d="M747 508v1235h-239v-1235h239zM1006 259h488v1484h-239v-1245h-249v-239zM996 1753v239h-239v-239h239zM1753 508h239v1484h-239v-1484zM2500 1753v-1006h-249v-249h-249v-249h-249v-249h-1006v249h-249v249h-249v249h-249v1006h249v249h249v249h498v249h259v-259h-249
v-239h488v249h249v249h259v-498h249v-249h249zM1256 3500v-503h-248v-247h-258v503h248v247h258zM2000 3500v-503h-248v-247h-258v503h248v247h258z" />
    <glyph glyph-name="Ograve" unicode="&#xd2;" horiz-adv-x="2750" 
d="M747 508v1235h-239v-1235h239zM1006 259h488v1484h-239v-1245h-249v-239zM996 1753v239h-239v-239h239zM1753 508h239v1484h-239v-1484zM2500 1753v-1006h-249v-249h-249v-249h-249v-249h-1006v249h-249v249h-249v249h-249v1006h249v249h249v249h498v249h259v-259h-249
v-239h488v249h249v249h259v-498h249v-249h249zM1500 3007v-257h-257v247h-493v503h257v-247h246v-246h247z" />
    <glyph glyph-name="Otilde" unicode="&#xd5;" horiz-adv-x="2750" 
d="M747 508v1235h-239v-1235h239zM1006 259h488v1484h-239v-1245h-249v-239zM996 1753v239h-239v-239h239zM1753 508h239v1484h-239v-1484zM2500 1753v-1006h-249v-249h-249v-249h-249v-249h-1006v249h-249v249h-249v249h-249v1006h249v249h249v249h498v249h259v-259h-249
v-239h488v249h249v249h259v-498h249v-249h249zM2000 3500v-257h-248v-246h-249v-247h-258v247h-248v246h-239v-246h-258v256h248v247h507v-247h487v247h258z" />
    <glyph glyph-name="Uacute" unicode="&#xda;" horiz-adv-x="3250" 
d="M3000 506v-260h-249v-249h-249v-249h-259v249h-250v249h-239v-249h-1006v249h-240v-249h-249v-738h987v499h259v-509h-249v-249h-1007v249h-249v758h249v249h249v988h-239v-499h-259v509h249v249h249v488h-239v-249h-259v259h249v250h249v249h259v-249h250v-1995h239
v1995h259v-1995h239v250h249v1745h250v249h259v-249h249v-260h-249v-1735h239v250h259zM2000 3500v-503h-493v-247h-257v257h247v246h246v247h257z" />
    <glyph glyph-name="Ucircumflex" unicode="&#xdb;" horiz-adv-x="3250" 
d="M2250 3007v-257h-258v247h-249v246h-238v-246h-248v-247h-507v257h248v246h249v247h506v-247h249v-246h248zM3000 506v-260h-249v-249h-249v-249h-259v249h-250v249h-239v-249h-1006v249h-240v-249h-249v-738h987v499h259v-509h-249v-249h-1007v249h-249v758h249v249h249
v988h-239v-499h-259v509h249v249h249v488h-239v-249h-259v259h249v250h249v249h259v-249h250v-1995h239v1995h259v-1995h239v250h249v1745h250v249h259v-249h249v-260h-249v-1735h239v250h259z" />
    <glyph glyph-name="Udieresis" unicode="&#xdc;" horiz-adv-x="3250" 
d="M1506 3500v-503h-248v-247h-258v503h248v247h258zM2250 3500v-503h-248v-247h-258v503h248v247h258zM3000 506v-260h-249v-249h-249v-249h-259v249h-250v249h-239v-249h-1006v249h-240v-249h-249v-738h987v499h259v-509h-249v-249h-1007v249h-249v758h249v249h249v988
h-239v-499h-259v509h249v249h249v488h-239v-249h-259v259h249v250h249v249h259v-249h250v-1995h239v1995h259v-1995h239v250h249v1745h250v249h259v-249h249v-260h-249v-1735h239v250h259z" />
    <glyph glyph-name="Ugrave" unicode="&#xd9;" horiz-adv-x="3250" 
d="M3000 506v-260h-249v-249h-249v-249h-259v249h-250v249h-239v-249h-1006v249h-240v-249h-249v-738h987v499h259v-509h-249v-249h-1007v249h-249v758h249v249h249v988h-239v-499h-259v509h249v249h249v488h-239v-249h-259v259h249v250h249v249h259v-249h250v-1995h239
v1995h259v-1995h239v250h249v1745h250v249h259v-249h249v-260h-249v-1735h239v250h259zM1750 3007v-257h-257v247h-493v503h257v-247h246v-246h247z" />
    <glyph glyph-name="aacute" unicode="&#xe1;" 
d="M995 506h249v737h-488v-986h239v249zM2000 257v-258h-249v-249h-258v249h-249v249h-239v-249h-249v-249h-258v249h-249v249h-249v258h249v995h746v249h259v-249h497v-1244h249zM1500 2750v-503h-493v-247h-257v257h247v246h246v247h257z" />
    <glyph glyph-name="acircumflex" unicode="&#xe2;" 
d="M995 506h249v737h-488v-986h239v249zM2000 257v-258h-249v-249h-258v249h-249v249h-239v-249h-249v-249h-258v249h-249v249h-249v258h249v995h746v249h259v-249h497v-1244h249zM1750 2257v-257h-258v247h-249v246h-238v-246h-248v-247h-507v257h248v246h249v247h506v-247
h249v-246h248z" />
    <glyph glyph-name="adieresis" unicode="&#xe4;" 
d="M1006 2750v-503h-248v-247h-258v503h248v247h258zM1750 2750v-503h-248v-247h-258v503h248v247h258zM995 506h249v737h-488v-986h239v249zM2000 257v-258h-249v-249h-258v249h-249v249h-239v-249h-249v-249h-258v249h-249v249h-249v258h249v995h746v249h259v-249h497
v-1244h249z" />
    <glyph glyph-name="agrave" unicode="&#xe0;" 
d="M1250 2257v-257h-257v247h-493v503h257v-247h246v-246h247zM995 506h249v737h-488v-986h239v249zM2000 257v-258h-249v-249h-258v249h-249v249h-239v-249h-249v-249h-258v249h-249v249h-249v258h249v995h746v249h259v-249h497v-1244h249z" />
    <glyph glyph-name="aring" unicode="&#xe5;" 
d="M1007 2257h236v236h-236v-236zM1500 2503v-256h-247v-247h-256v247h-247v256h247v247h256v-247h247zM995 506h249v737h-488v-986h239v249zM2000 257v-258h-249v-249h-258v249h-249v249h-239v-249h-249v-249h-258v249h-249v249h-249v258h249v995h746v249h259v-249h497
v-1244h249z" />
    <glyph glyph-name="atilde" unicode="&#xe3;" 
d="M995 506h249v737h-488v-986h239v249zM2000 257v-258h-249v-249h-258v249h-249v249h-239v-249h-249v-249h-258v249h-249v249h-249v258h249v995h746v249h259v-249h497v-1244h249zM1750 2750v-257h-248v-246h-249v-247h-258v247h-248v246h-239v-246h-258v256h248v247h507
v-247h487v247h258z" />
    <glyph glyph-name="ccedilla" unicode="&#xe7;" horiz-adv-x="1750" 
d="M1500 505v-259h-248v-249h-249v-249h-248v-249h-497v-249h-258v259h248v249h497v239h-248v249h-497v259h248v996h994v249h258v-508h-745v-986h487v249h258z" />
    <glyph glyph-name="eacute" unicode="&#xe9;" horiz-adv-x="2000" 
d="M994 1004h249v239h-487v-488h238v249zM1750 506v-258h-249v-249h-497v-249h-258v249h-249v249h-497v258h249v995h994v249h258v-249h249v-507h-497v-249h-249v-249h-248v-239h735v249h259zM1500 2750v-503h-493v-247h-257v257h247v246h246v247h257z" />
    <glyph glyph-name="ecircumflex" unicode="&#xea;" horiz-adv-x="2000" 
d="M994 1004h249v239h-487v-488h238v249zM1750 506v-258h-249v-249h-497v-249h-258v249h-249v249h-497v258h249v995h994v249h258v-249h249v-507h-497v-249h-249v-249h-248v-239h735v249h259zM1750 2257v-257h-258v247h-249v246h-238v-246h-248v-247h-507v257h248v246h249
v247h506v-247h249v-246h248z" />
    <glyph glyph-name="edieresis" unicode="&#xeb;" horiz-adv-x="2000" 
d="M1006 2750v-503h-248v-247h-258v503h248v247h258zM1750 2750v-503h-248v-247h-258v503h248v247h258zM994 1004h249v239h-487v-488h238v249zM1750 506v-258h-249v-249h-497v-249h-258v249h-249v249h-497v258h249v995h994v249h258v-249h249v-507h-497v-249h-249v-249h-248
v-239h735v249h259z" />
    <glyph glyph-name="egrave" unicode="&#xe8;" horiz-adv-x="2000" 
d="M1250 2257v-257h-257v247h-493v503h257v-247h246v-246h247zM994 1004h249v239h-487v-488h238v249zM1750 506v-258h-249v-249h-497v-249h-258v249h-249v249h-497v258h249v995h994v249h258v-249h249v-507h-497v-249h-249v-249h-248v-239h735v249h259z" />
    <glyph glyph-name="iacute" unicode="&#xed;" horiz-adv-x="1000" 
d="M750 257v-258h-247v-249h-256v249h-247v1501h750v-259h-247v-984h247zM750 2750v-503h-493v-247h-257v257h247v246h246v247h257z" />
    <glyph glyph-name="icircumflex" unicode="&#xee;" horiz-adv-x="1750" 
d="M1500 2257v-257h-258v247h-249v246h-238v-246h-248v-247h-507v257h248v246h249v247h506v-247h249v-246h248zM1250 257v-258h-247v-249h-256v249h-247v1501h750v-259h-247v-984h247z" />
    <glyph glyph-name="idieresis" unicode="&#xef;" horiz-adv-x="1500" 
d="M506 2750v-503h-248v-247h-258v503h248v247h258zM1250 2750v-503h-248v-247h-258v503h248v247h258zM1000 257v-258h-247v-249h-256v249h-247v1501h750v-259h-247v-984h247z" />
    <glyph glyph-name="igrave" unicode="&#xec;" horiz-adv-x="1000" 
d="M750 2257v-257h-257v247h-493v503h257v-247h246v-246h247zM750 257v-258h-247v-249h-256v249h-247v1501h750v-259h-247v-984h247z" />
    <glyph glyph-name="ntilde" unicode="&#xf1;" 
d="M2000 257v-258h-249v-249h-258v249h-249v1244h-239v-249h-249v-737h249v-258h-249v-249h-258v249h-249v249h-249v258h249v737h-249v258h249v249h258v-249h249v-249h239v249h249v249h258v-249h498v-258h-249v-986h249zM1750 2750v-257h-248v-246h-249v-247h-258v247h-248
v246h-239v-246h-258v256h248v247h507v-247h487v247h258z" />
    <glyph glyph-name="oacute" unicode="&#xf3;" horiz-adv-x="2000" 
d="M1500 2750v-503h-493v-247h-257v257h247v246h246v247h257zM756 257h487v986h-487v-986zM1750 1501v-1253h-249v-249h-745v-249h-259v249h-248v249h-249v258h249v995h994v249h258v-249h249z" />
    <glyph glyph-name="ocircumflex" unicode="&#xf4;" horiz-adv-x="2000" 
d="M756 257h487v986h-487v-986zM1750 1501v-1253h-249v-249h-745v-249h-259v249h-248v249h-249v258h249v995h994v249h258v-249h249zM1750 2257v-257h-258v247h-249v246h-238v-246h-248v-247h-507v257h248v246h249v247h506v-247h249v-246h248z" />
    <glyph glyph-name="odieresis" unicode="&#xf6;" horiz-adv-x="2000" 
d="M1006 2750v-503h-248v-247h-258v503h248v247h258zM1750 2750v-503h-248v-247h-258v503h248v247h258zM756 257h487v986h-487v-986zM1750 1501v-1253h-249v-249h-745v-249h-259v249h-248v249h-249v258h249v995h994v249h258v-249h249z" />
    <glyph glyph-name="ograve" unicode="&#xf2;" horiz-adv-x="2000" 
d="M1250 2257v-257h-257v247h-493v503h257v-247h246v-246h247zM756 257h487v986h-487v-986zM1750 1501v-1253h-249v-249h-745v-249h-259v249h-248v249h-249v258h249v995h994v249h258v-249h249z" />
    <glyph glyph-name="otilde" unicode="&#xf5;" horiz-adv-x="2000" 
d="M756 257h487v986h-487v-986zM1750 1501v-1253h-249v-249h-745v-249h-259v249h-248v249h-249v258h249v995h994v249h258v-249h249zM1750 2750v-257h-248v-246h-249v-247h-258v247h-248v246h-239v-246h-258v256h248v247h507v-247h487v247h258z" />
    <glyph glyph-name="uacute" unicode="&#xfa;" 
d="M2000 257v-258h-249v-249h-258v249h-249v249h-239v-249h-249v-249h-258v249h-249v249h-249v258h249v737h-249v258h249v249h258v-249h249v-1244h239v249h249v737h-249v258h249v249h258v-249h498v-258h-249v-986h249zM1500 2750v-503h-493v-247h-257v257h247v246h246v247
h257z" />
    <glyph glyph-name="ucircumflex" unicode="&#xfb;" 
d="M2000 257v-258h-249v-249h-258v249h-249v249h-239v-249h-249v-249h-258v249h-249v249h-249v258h249v737h-249v258h249v249h258v-249h249v-1244h239v249h249v737h-249v258h249v249h258v-249h498v-258h-249v-986h249zM1750 2257v-257h-258v247h-249v246h-238v-246h-248
v-247h-507v257h248v246h249v247h506v-247h249v-246h248z" />
    <glyph glyph-name="udieresis" unicode="&#xfc;" 
d="M1006 2750v-503h-248v-247h-258v503h248v247h258zM1750 2750v-503h-248v-247h-258v503h248v247h258zM2000 257v-258h-249v-249h-258v249h-249v249h-239v-249h-249v-249h-258v249h-249v249h-249v258h249v737h-249v258h249v249h258v-249h249v-1244h239v249h249v737h-249
v258h249v249h258v-249h498v-258h-249v-986h249z" />
    <glyph glyph-name="ugrave" unicode="&#xf9;" 
d="M1250 2257v-257h-257v247h-493v503h257v-247h246v-246h247zM2000 257v-258h-249v-249h-258v249h-249v249h-239v-249h-249v-249h-258v249h-249v249h-249v258h249v737h-249v258h249v249h258v-249h249v-1244h239v249h249v737h-249v258h249v249h258v-249h498v-258h-249v-986
h249z" />
    <glyph glyph-name="nbspace" unicode="&#xa0;" horiz-adv-x="1000" 
 />
    <glyph glyph-name="Euro" unicode="&#x20ac;" horiz-adv-x="3000" 
d="M259 1255h239v239h-239v-239zM1255 259h240v488h-250v249h-239v-488h249v-249zM1006 1255h239v239h-239v-239zM1754 259h239v737h-239v-737zM1754 1255h239v239h-239v-239zM2750 757v-259h-249v-249h-249v-249h-1007v249h-498v249h-249v498h-239v-249h-259v259h249v239
h-249v259h249v249h249v249h249v249h498v249h509v-259h-499v-249h-249v-239h489v249h498v249h498v249h259v-259h-249v-249h-498v-239h747v-259h-498v-239h498v-259h-498v-488h239v249h259z" />
  </font>
</defs>
</svg>
